<svg id="svg" version="1.1" width="500" height="500" xmlns="http://www.w3.org/2000/svg" xmlns:xlink="http://www.w3.org/1999/xlink" style="display: block;"><g id="svgg"><path id="path0" d="M218.400 191.902 C 218.400 229.277,218.620 239.975,219.400 240.580 C 220.303 241.280,228.056 244.000,229.150 244.000 C 229.398 244.000,229.621 233.110,229.646 219.800 C 229.688 197.629,230.295 187.316,231.375 190.400 C 231.606 191.060,232.402 194.300,233.144 197.600 C 233.885 200.900,234.817 204.860,235.215 206.400 C 237.999 217.184,240.000 225.901,240.000 227.244 C 240.000 228.165,241.084 229.490,242.600 230.421 L 245.200 232.019 246.600 230.321 C 247.370 229.387,248.000 228.007,248.000 227.254 C 248.000 226.501,248.498 224.291,249.106 222.343 C 249.715 220.394,250.656 217.180,251.199 215.200 C 251.742 213.220,252.477 210.700,252.833 209.600 C 253.189 208.500,254.318 204.900,255.340 201.600 L 257.200 195.600 257.600 224.134 C 257.820 239.828,258.180 252.793,258.400 252.945 C 259.792 253.905,267.368 255.990,268.015 255.591 C 269.421 254.722,269.052 159.605,267.637 158.431 C 262.304 154.004,257.585 155.136,256.090 161.200 C 254.286 168.517,253.806 170.121,252.925 171.766 C 252.416 172.717,252.000 174.358,252.000 175.414 C 252.000 176.470,251.743 177.591,251.428 177.905 C 251.113 178.220,250.380 180.170,249.799 182.239 C 249.218 184.307,248.375 187.260,247.926 188.800 C 247.477 190.340,246.751 193.026,246.313 194.769 C 245.096 199.609,242.400 202.022,242.400 198.270 C 242.400 197.319,241.827 194.529,241.126 192.070 C 240.425 189.612,239.554 186.340,239.189 184.800 C 238.825 183.260,237.930 179.660,237.200 176.800 C 236.470 173.940,235.563 170.340,235.184 168.800 C 234.806 167.260,233.934 164.132,233.248 161.850 C 232.562 159.567,232.000 156.974,232.000 156.087 C 232.000 155.201,231.665 153.648,231.255 152.638 C 230.846 151.627,230.317 149.882,230.080 148.760 C 229.564 146.312,225.238 144.000,221.173 144.000 L 218.400 144.000 218.400 191.902 M348.000 145.197 C 346.460 145.763,342.500 147.034,339.200 148.020 C 335.900 149.007,329.960 150.844,326.000 152.102 C 322.040 153.361,318.405 154.393,317.923 154.395 C 317.441 154.398,315.911 154.966,314.523 155.659 L 312.000 156.917 312.000 205.344 C 312.000 251.138,312.076 253.742,313.400 253.230 C 315.559 252.396,323.196 249.967,327.200 248.841 C 329.180 248.284,332.060 247.365,333.600 246.800 C 335.140 246.235,338.020 245.339,340.000 244.809 C 341.980 244.280,344.782 243.341,346.227 242.723 C 347.672 242.105,349.562 241.600,350.427 241.600 C 351.857 241.600,352.000 241.031,352.000 235.333 C 352.000 227.948,351.889 227.770,348.109 229.140 C 346.509 229.720,341.960 231.180,338.000 232.385 C 334.040 233.590,329.790 234.948,328.555 235.403 C 327.107 235.937,326.036 235.956,325.536 235.456 C 324.168 234.088,324.970 207.088,326.400 206.371 C 327.060 206.040,330.840 204.782,334.800 203.574 C 338.760 202.366,343.440 200.925,345.200 200.372 L 348.400 199.367 348.635 193.683 C 348.902 187.228,348.199 186.757,341.816 189.114 C 336.743 190.987,327.634 193.600,326.177 193.600 C 324.927 193.600,324.801 192.328,324.812 179.800 C 324.826 164.068,324.569 164.841,330.400 163.017 C 332.820 162.260,337.860 160.693,341.600 159.534 C 352.914 156.030,352.000 156.827,352.000 150.464 C 352.000 144.071,351.795 143.801,348.000 145.197 M159.600 149.937 C 151.528 152.279,143.244 158.679,139.846 165.200 C 136.297 172.008,136.400 170.797,136.400 205.921 C 136.400 243.933,136.381 243.800,142.431 247.619 C 155.672 255.978,177.304 240.301,179.631 220.661 C 180.336 214.713,180.010 214.338,175.412 215.812 C 169.526 217.698,167.619 218.918,167.389 220.943 C 166.558 228.273,166.173 229.557,164.167 231.693 C 158.073 238.181,151.769 238.425,149.199 232.273 C 147.574 228.386,147.451 177.517,149.053 172.161 C 152.373 161.062,165.151 158.513,166.829 168.615 C 167.102 170.257,167.465 172.050,167.637 172.600 C 167.992 173.736,172.475 173.972,173.144 172.891 C 173.385 172.501,174.812 171.951,176.314 171.669 C 179.671 171.039,180.230 169.716,179.523 164.062 C 178.044 152.225,170.399 146.805,159.600 149.937 M65.689 150.693 C 65.197 151.286,64.415 153.532,63.951 155.685 C 62.551 162.180,61.729 165.745,60.370 171.200 C 59.658 174.060,58.758 177.840,58.370 179.600 C 57.982 181.360,57.086 185.140,56.377 188.000 C 55.669 190.860,54.795 194.460,54.436 196.000 C 54.076 197.540,53.171 201.140,52.423 204.000 C 51.676 206.860,50.779 210.640,50.430 212.400 C 50.082 214.160,49.182 217.940,48.430 220.800 C 47.679 223.660,46.769 227.440,46.408 229.200 C 46.047 230.960,45.340 233.755,44.835 235.411 C 43.698 239.146,43.902 239.474,48.160 240.742 C 50.052 241.306,52.427 242.089,53.438 242.483 C 57.238 243.965,57.484 243.484,59.944 229.747 C 60.713 225.451,62.402 223.554,64.499 224.630 C 65.324 225.054,68.160 226.028,70.800 226.795 C 81.200 229.815,81.672 230.198,82.483 236.283 C 84.467 251.173,85.083 252.527,90.588 254.083 C 92.464 254.614,94.810 255.304,95.800 255.617 C 97.853 256.267,98.301 253.207,96.849 248.457 C 96.436 247.106,95.509 242.940,94.788 239.200 C 94.068 235.460,93.177 231.140,92.808 229.600 C 92.213 227.114,91.253 222.551,88.771 210.400 C 88.367 208.420,87.462 204.100,86.761 200.800 C 86.061 197.500,85.161 193.180,84.761 191.200 C 83.925 187.050,81.831 177.073,80.816 172.400 C 80.221 169.660,78.382 160.780,77.124 154.566 C 76.919 153.557,76.133 152.534,75.376 152.293 C 74.619 152.052,73.280 151.556,72.400 151.190 C 69.071 149.806,66.578 149.621,65.689 150.693 M73.008 186.200 C 73.728 189.610,74.510 193.660,74.745 195.200 C 74.981 196.740,75.754 200.880,76.464 204.400 C 79.169 217.822,79.452 217.395,69.908 214.312 C 63.799 212.338,63.447 211.749,64.783 205.732 C 65.336 203.240,66.290 198.860,66.903 196.000 C 70.412 179.625,70.313 180.000,71.103 180.000 C 71.430 180.000,72.287 182.790,73.008 186.200 " stroke="none" fill="#ffffff" fill-rule="evenodd"></path><path id="path1" d="M196.800 102.122 C 196.140 102.339,194.880 102.813,194.000 103.174 C 193.120 103.535,189.340 104.740,185.600 105.852 C 174.783 109.067,164.848 112.087,158.800 114.000 C 155.720 114.974,149.960 116.769,146.000 117.988 C 142.040 119.208,136.280 121.010,133.200 121.993 C 130.120 122.976,125.440 124.425,122.800 125.214 C 120.160 126.002,117.190 127.009,116.200 127.452 L 114.400 128.257 114.400 214.214 C 114.400 282.646,114.604 300.095,115.400 299.796 C 115.950 299.590,119.100 298.602,122.400 297.600 C 125.700 296.598,130.920 294.974,134.000 293.992 C 137.080 293.010,142.840 291.208,146.800 289.988 C 150.760 288.769,156.520 286.972,159.600 285.995 C 162.680 285.019,167.360 283.595,170.000 282.830 C 178.171 280.465,180.344 279.800,182.000 279.161 C 182.880 278.821,185.580 277.966,188.000 277.262 C 190.420 276.557,194.290 275.370,196.600 274.624 L 200.800 273.269 200.800 187.434 C 200.800 93.752,201.126 100.697,196.800 102.122 M171.856 149.248 C 177.970 152.298,180.772 157.878,180.791 167.041 C 180.801 171.617,179.792 172.508,172.400 174.459 C 171.080 174.807,169.243 175.324,168.318 175.608 C 166.779 176.081,166.597 175.740,166.168 171.580 C 165.228 162.480,155.583 161.011,151.150 169.293 C 149.071 173.176,149.483 232.340,151.600 233.940 C 157.394 238.319,165.106 232.161,166.133 222.334 C 166.659 217.299,166.617 217.338,174.207 214.826 C 180.570 212.721,181.110 213.216,180.598 220.689 C 178.734 247.872,140.409 262.989,135.289 238.561 C 134.112 232.947,134.089 180.012,135.261 174.239 C 137.451 163.450,149.348 149.647,156.508 149.588 C 157.328 149.581,158.540 149.227,159.200 148.800 C 161.082 147.584,169.087 147.867,171.856 149.248 " stroke="none" fill="#f1543c" fill-rule="evenodd"></path><path id="path2" d="M200.996 187.693 L 201.200 272.985 206.400 274.598 C 209.260 275.485,212.320 276.473,213.200 276.793 C 214.080 277.114,216.960 278.002,219.600 278.768 C 222.240 279.533,225.025 280.484,225.789 280.880 C 226.553 281.276,227.891 281.600,228.762 281.600 C 229.633 281.600,231.528 282.105,232.973 282.723 C 234.418 283.341,237.220 284.295,239.200 284.844 C 241.180 285.392,245.320 286.637,248.400 287.610 C 260.861 291.546,267.819 293.705,272.000 294.932 C 274.420 295.643,277.120 296.480,278.000 296.792 C 283.065 298.592,285.108 299.104,285.717 298.728 C 286.093 298.495,286.400 260.161,286.400 213.540 L 286.400 128.774 283.800 127.619 C 282.370 126.983,276.340 124.987,270.400 123.183 C 264.460 121.379,258.700 119.607,257.600 119.246 C 256.500 118.885,253.440 117.956,250.800 117.182 C 248.160 116.409,245.280 115.508,244.400 115.181 C 243.520 114.854,240.640 113.947,238.000 113.166 C 235.360 112.385,231.220 111.120,228.800 110.354 C 226.380 109.589,220.620 107.829,216.000 106.445 C 211.380 105.061,206.773 103.584,205.762 103.164 C 200.303 100.894,200.769 92.615,200.996 187.693 M226.798 145.360 C 228.658 146.247,229.800 147.430,230.080 148.760 C 230.317 149.882,230.846 151.627,231.255 152.638 C 231.665 153.648,232.000 155.201,232.000 156.087 C 232.000 156.974,232.562 159.567,233.248 161.850 C 233.934 164.132,234.806 167.260,235.184 168.800 C 235.563 170.340,236.470 173.940,237.200 176.800 C 237.930 179.660,238.825 183.260,239.189 184.800 C 239.554 186.340,240.425 189.612,241.126 192.070 C 241.827 194.529,242.400 197.319,242.400 198.270 C 242.400 202.022,245.096 199.609,246.313 194.769 C 246.751 193.026,247.477 190.340,247.926 188.800 C 248.375 187.260,249.218 184.307,249.799 182.239 C 250.380 180.170,251.113 178.220,251.428 177.905 C 251.743 177.591,252.000 176.470,252.000 175.414 C 252.000 174.358,252.416 172.717,252.925 171.766 C 253.806 170.121,254.286 168.517,256.090 161.200 C 257.585 155.136,262.304 154.004,267.637 158.431 C 269.052 159.605,269.421 254.722,268.015 255.591 C 267.368 255.990,259.792 253.905,258.400 252.945 C 258.180 252.793,257.820 239.828,257.600 224.134 L 257.200 195.600 255.340 201.600 C 254.318 204.900,253.189 208.500,252.833 209.600 C 252.477 210.700,251.742 213.220,251.199 215.200 C 250.656 217.180,249.715 220.394,249.106 222.343 C 248.498 224.291,248.000 226.501,248.000 227.254 C 248.000 228.007,247.370 229.387,246.600 230.321 L 245.200 232.019 242.600 230.421 C 241.084 229.490,240.000 228.165,240.000 227.244 C 240.000 225.901,237.999 217.184,235.215 206.400 C 234.817 204.860,233.885 200.900,233.144 197.600 C 232.402 194.300,231.606 191.060,231.375 190.400 C 230.295 187.316,229.688 197.629,229.646 219.800 C 229.621 233.110,229.398 244.000,229.150 244.000 C 228.056 244.000,220.303 241.280,219.400 240.580 C 218.620 239.975,218.400 229.277,218.400 191.902 L 218.400 144.000 221.173 144.000 C 222.698 144.000,225.229 144.612,226.798 145.360 M346.800 144.772 C 345.920 145.137,343.635 145.858,341.722 146.373 C 339.809 146.889,338.432 147.499,338.662 147.729 C 339.072 148.139,342.427 147.203,348.000 145.126 C 349.540 144.552,350.260 144.088,349.600 144.095 C 348.940 144.102,347.680 144.407,346.800 144.772 M351.872 149.756 C 352.098 154.558,351.907 155.690,350.719 156.558 C 349.935 157.131,349.667 157.600,350.123 157.600 C 353.107 157.600,355.224 145.199,352.400 144.261 C 351.900 144.096,351.702 146.155,351.872 149.756 M159.200 148.800 C 158.540 149.227,157.328 149.581,156.508 149.588 C 149.348 149.647,137.451 163.450,135.261 174.239 C 134.089 180.012,134.112 232.947,135.289 238.561 C 140.409 262.989,178.734 247.872,180.598 220.689 C 181.110 213.216,180.570 212.721,174.207 214.826 C 166.617 217.338,166.659 217.299,166.133 222.334 C 165.106 232.161,157.394 238.319,151.600 233.940 C 149.483 232.340,149.071 173.176,151.150 169.293 C 155.583 161.011,165.228 162.480,166.168 171.580 C 166.597 175.740,166.779 176.081,168.318 175.608 C 169.243 175.324,171.080 174.807,172.400 174.459 C 181.012 172.187,182.024 170.310,180.291 159.827 C 178.936 151.628,165.607 144.660,159.200 148.800 M334.000 148.800 C 333.415 149.746,334.198 149.746,336.400 148.800 C 337.943 148.137,337.937 148.110,336.247 148.056 C 335.283 148.025,334.272 148.360,334.000 148.800 M64.960 149.760 C 64.432 150.288,64.005 151.458,64.012 152.360 C 64.022 153.830,64.130 153.793,65.051 152.000 C 65.878 150.389,66.615 150.031,68.839 150.159 C 71.309 150.302,71.389 150.247,69.600 149.639 C 66.729 148.664,66.038 148.682,64.960 149.760 M169.677 150.027 C 179.146 153.368,184.299 170.171,176.314 171.669 C 174.812 171.951,173.385 172.501,173.144 172.891 C 172.475 173.972,167.992 173.736,167.637 172.600 C 167.465 172.050,167.102 170.257,166.829 168.615 C 165.151 158.513,152.373 161.062,149.053 172.161 C 147.451 177.517,147.574 228.386,149.199 232.273 C 151.769 238.425,158.073 238.181,164.167 231.693 C 166.173 229.557,166.558 228.273,167.389 220.943 C 167.619 218.918,169.526 217.698,175.412 215.812 C 180.010 214.338,180.336 214.713,179.631 220.661 C 177.304 240.301,155.672 255.978,142.431 247.619 C 136.381 243.800,136.400 243.933,136.400 205.921 C 136.400 170.797,136.297 172.008,139.846 165.200 C 145.439 154.468,160.521 146.797,169.677 150.027 M327.600 150.771 C 324.401 152.236,325.983 152.270,330.000 150.823 C 331.760 150.189,332.480 149.671,331.600 149.671 C 330.720 149.672,328.920 150.167,327.600 150.771 M76.495 152.773 C 76.832 153.418,77.357 155.218,77.662 156.773 C 78.213 159.585,78.216 159.587,78.308 157.153 C 78.359 155.807,77.833 154.007,77.141 153.153 C 76.448 152.299,76.157 152.128,76.495 152.773 M319.200 153.250 C 317.496 153.895,317.026 154.304,318.000 154.294 C 318.880 154.285,320.860 153.793,322.400 153.200 C 324.076 152.555,324.558 152.136,323.600 152.156 C 322.720 152.175,320.740 152.668,319.200 153.250 M312.600 155.658 L 310.400 156.851 310.400 205.226 C 310.400 236.942,310.675 253.600,311.200 253.600 C 311.725 253.600,312.000 236.927,312.000 205.180 L 312.000 156.760 314.000 156.000 C 315.100 155.582,316.000 155.051,316.000 154.820 C 316.000 154.130,314.929 154.394,312.600 155.658 M62.857 157.257 C 62.563 158.430,62.502 159.569,62.722 159.789 C 62.942 160.009,63.363 159.230,63.657 158.057 C 63.951 156.885,64.012 155.745,63.792 155.525 C 63.572 155.305,63.151 156.085,62.857 157.257 M343.600 158.829 C 340.426 160.282,341.960 160.279,346.000 158.823 C 347.760 158.189,348.480 157.684,347.600 157.700 C 346.720 157.717,344.920 158.224,343.600 158.829 M78.512 161.200 C 78.512 162.080,78.822 163.520,79.200 164.400 L 79.888 166.000 79.888 164.400 C 79.888 163.520,79.578 162.080,79.200 161.200 L 78.512 159.600 78.512 161.200 M61.000 165.079 C 59.634 170.195,59.807 171.568,61.286 167.346 C 61.952 165.446,62.385 163.317,62.248 162.613 C 62.112 161.910,61.550 163.019,61.000 165.079 M330.800 162.829 C 327.626 164.282,329.160 164.279,333.200 162.823 C 334.960 162.189,335.680 161.684,334.800 161.700 C 333.920 161.717,332.120 162.224,330.800 162.829 M325.286 165.265 C 325.019 165.961,324.800 172.621,324.800 180.065 C 324.800 194.922,324.870 195.093,330.000 192.760 C 331.280 192.177,331.040 192.069,328.800 192.216 L 326.000 192.400 325.780 179.306 C 325.629 170.330,325.848 165.865,326.478 165.106 C 327.041 164.427,327.082 164.000,326.584 164.000 C 326.137 164.000,325.553 164.569,325.286 165.265 M80.504 170.400 C 81.633 177.052,82.213 179.048,82.247 176.400 C 82.263 175.080,81.771 172.560,81.153 170.800 C 80.040 167.634,80.034 167.630,80.504 170.400 M58.857 174.057 C 58.563 175.230,58.502 176.369,58.722 176.589 C 58.942 176.809,59.363 176.030,59.657 174.857 C 59.951 173.685,60.012 172.545,59.792 172.325 C 59.572 172.105,59.151 172.885,58.857 174.057 M57.000 181.879 C 55.634 186.995,55.807 188.368,57.286 184.146 C 57.952 182.246,58.385 180.117,58.248 179.413 C 58.112 178.710,57.550 179.819,57.000 181.879 M82.536 180.000 C 82.577 182.079,83.836 185.493,83.864 183.600 C 83.877 182.720,83.578 181.280,83.200 180.400 C 82.779 179.420,82.522 179.265,82.536 180.000 M70.139 181.400 C 68.159 188.927,67.833 190.500,68.184 190.850 C 68.406 191.073,69.065 189.104,69.648 186.476 C 70.232 183.847,70.999 181.876,71.354 182.095 C 71.709 182.315,72.000 181.933,72.000 181.247 C 72.000 179.549,70.596 179.664,70.139 181.400 M72.390 185.600 C 73.209 191.051,74.213 194.893,74.273 192.800 C 74.304 191.700,73.798 189.000,73.150 186.800 C 72.337 184.044,72.101 183.671,72.390 185.600 M346.400 187.200 C 345.436 187.823,345.567 187.978,347.063 187.988 C 348.871 188.000,348.919 188.178,348.663 194.002 C 348.518 197.303,348.670 200.003,349.000 200.002 C 349.330 200.001,349.600 196.940,349.600 193.200 C 349.600 186.230,349.165 185.413,346.400 187.200 M84.504 189.600 C 85.633 196.252,86.213 198.248,86.247 195.600 C 86.263 194.280,85.771 191.760,85.153 190.000 C 84.040 186.834,84.034 186.830,84.504 189.600 M340.400 188.769 C 339.520 189.133,337.268 189.887,335.396 190.444 C 333.524 191.002,332.147 191.614,332.336 191.803 C 332.680 192.146,336.314 191.096,341.600 189.126 C 343.140 188.552,343.860 188.088,343.200 188.095 C 342.540 188.102,341.280 188.406,340.400 188.769 M54.857 190.857 C 54.563 192.030,54.502 193.169,54.722 193.389 C 54.942 193.609,55.363 192.830,55.657 191.657 C 55.951 190.485,56.012 189.345,55.792 189.125 C 55.572 188.905,55.151 189.685,54.857 190.857 M66.800 196.000 C 66.496 197.383,66.428 198.694,66.648 198.914 C 66.868 199.134,67.296 198.183,67.600 196.800 C 67.904 195.417,67.972 194.106,67.752 193.886 C 67.532 193.666,67.104 194.617,66.800 196.000 M52.997 198.379 C 52.449 200.137,52.025 202.210,52.056 202.987 C 52.086 203.764,52.646 202.659,53.300 200.532 C 53.953 198.405,54.377 196.331,54.241 195.924 C 54.106 195.517,53.546 196.622,52.997 198.379 M74.512 198.000 C 74.512 198.880,74.822 200.320,75.200 201.200 L 75.888 202.800 75.888 201.200 C 75.888 200.320,75.578 198.880,75.200 198.000 L 74.512 196.400 74.512 198.000 M86.492 199.200 C 86.529 199.860,86.848 201.300,87.200 202.400 L 87.841 204.400 87.908 202.400 C 87.945 201.300,87.627 199.860,87.200 199.200 C 86.511 198.133,86.432 198.133,86.492 199.200 M65.274 203.200 C 63.704 211.934,63.798 212.173,69.600 214.181 C 78.773 217.357,79.602 216.722,77.152 208.400 C 75.902 204.157,75.992 207.447,77.277 213.000 C 77.905 215.714,77.387 215.750,70.223 213.489 C 64.367 211.640,64.293 211.520,65.674 206.036 C 66.155 204.126,66.407 201.897,66.235 201.082 C 66.062 200.267,65.630 201.220,65.274 203.200 M337.200 202.829 C 334.026 204.282,335.560 204.279,339.600 202.823 C 341.360 202.189,342.080 201.684,341.200 201.700 C 340.320 201.717,338.520 202.224,337.200 202.829 M325.760 206.560 C 324.538 207.782,324.393 234.854,325.605 235.603 C 326.407 236.099,329.886 235.174,335.200 233.052 C 337.964 231.948,336.665 232.158,331.200 233.696 C 325.659 235.257,326.022 236.014,325.771 222.400 C 325.508 208.147,325.733 206.640,328.201 206.164 C 329.829 205.851,329.844 205.808,328.360 205.709 C 327.458 205.649,326.288 206.032,325.760 206.560 M88.504 208.800 C 89.633 215.452,90.213 217.448,90.247 214.800 C 90.263 213.480,89.771 210.960,89.153 209.200 C 88.040 206.034,88.034 206.030,88.504 208.800 M49.354 213.400 C 48.059 219.477,48.010 221.134,49.239 217.329 C 49.927 215.200,50.359 212.860,50.199 212.129 C 50.032 211.362,49.674 211.900,49.354 213.400 M90.536 218.400 C 90.577 220.479,91.836 223.893,91.864 222.000 C 91.877 221.120,91.578 219.680,91.200 218.800 C 90.779 217.820,90.522 217.665,90.536 218.400 M46.800 224.000 C 46.500 224.946,46.434 225.901,46.654 226.121 C 46.874 226.341,47.300 225.746,47.600 224.800 C 47.900 223.854,47.966 222.899,47.746 222.679 C 47.526 222.459,47.100 223.054,46.800 224.000 M61.245 225.778 C 60.560 226.756,60.014 228.286,60.031 229.178 C 60.054 230.374,60.359 230.117,61.193 228.200 C 61.814 226.770,62.901 225.600,63.609 225.600 C 64.316 225.600,64.672 225.240,64.400 224.800 C 63.619 223.537,62.592 223.855,61.245 225.778 M68.400 226.823 C 70.160 227.457,71.960 227.952,72.400 227.923 C 73.820 227.829,68.456 225.672,66.800 225.671 C 65.920 225.671,66.640 226.189,68.400 226.823 M92.068 226.800 C 92.044 227.680,92.373 228.940,92.800 229.600 C 93.828 231.190,93.828 229.192,92.800 226.800 L 92.112 225.200 92.068 226.800 M45.403 230.000 C 44.012 236.597,43.989 237.072,45.219 233.746 C 45.922 231.846,46.364 229.686,46.203 228.946 C 46.020 228.111,45.717 228.511,45.403 230.000 M77.342 229.599 C 80.246 230.890,80.784 231.537,81.456 234.542 C 82.069 237.284,82.246 237.534,82.314 235.747 C 82.462 231.877,78.661 227.860,75.040 228.057 C 74.468 228.088,75.504 228.782,77.342 229.599 M345.600 229.250 C 344.060 229.833,343.389 230.330,344.108 230.355 C 344.828 230.380,346.628 229.874,348.108 229.231 C 351.440 227.785,349.433 227.800,345.600 229.250 M351.864 234.984 C 352.054 240.005,352.346 241.584,352.901 240.592 C 353.882 238.838,353.467 228.616,352.400 228.262 C 351.894 228.094,351.697 230.567,351.864 234.984 M93.786 233.600 C 93.786 235.140,93.950 235.770,94.151 235.000 C 94.353 234.230,94.353 232.970,94.151 232.200 C 93.950 231.430,93.786 232.060,93.786 233.600 M58.540 236.175 C 58.023 238.228,57.600 240.691,57.600 241.648 C 57.600 243.101,57.271 243.305,55.600 242.893 C 50.645 241.671,49.479 241.645,52.677 242.827 C 56.802 244.352,58.400 243.938,58.400 241.344 C 58.400 240.296,58.793 238.313,59.272 236.936 C 59.752 235.560,59.995 233.986,59.813 233.438 C 59.630 232.889,59.057 234.121,58.540 236.175 M94.492 237.600 C 94.529 238.260,94.848 239.700,95.200 240.800 L 95.841 242.800 95.908 240.800 C 95.945 239.700,95.627 238.260,95.200 237.600 C 94.511 236.533,94.432 236.533,94.492 237.600 M45.153 240.411 C 46.007 241.065,47.177 241.600,47.753 241.600 C 49.537 241.600,48.915 240.995,46.200 240.089 C 43.821 239.296,43.732 239.323,45.153 240.411 M82.512 241.200 C 82.512 242.080,82.822 243.520,83.200 244.400 L 83.888 246.000 83.888 244.400 C 83.888 243.520,83.578 242.080,83.200 241.200 L 82.512 239.600 82.512 241.200 M346.400 242.800 C 343.775 244.301,345.475 244.322,348.908 242.831 C 350.767 242.024,351.105 241.662,350.000 241.660 C 349.120 241.658,347.500 242.171,346.400 242.800 M96.478 246.400 C 96.750 247.940,97.023 250.876,97.086 252.924 C 97.149 254.972,97.470 256.480,97.800 256.276 C 98.778 255.672,98.463 251.063,97.180 247.200 C 96.196 244.236,96.072 244.095,96.478 246.400 M338.800 244.993 C 333.197 246.914,331.967 247.433,332.282 247.748 C 332.664 248.130,343.200 244.832,343.200 244.331 C 343.200 243.822,341.447 244.086,338.800 244.993 M84.093 249.640 C 84.000 251.685,85.253 253.600,86.684 253.600 C 87.104 253.600,86.889 252.970,86.207 252.200 C 85.524 251.430,84.790 250.080,84.575 249.200 C 84.259 247.901,84.168 247.984,84.093 249.640 M320.400 250.829 C 318.484 251.706,318.331 251.935,319.640 251.964 C 320.542 251.984,321.622 251.675,322.040 251.278 C 322.458 250.880,323.520 250.382,324.400 250.170 L 326.000 249.786 324.400 249.758 C 323.520 249.742,321.720 250.224,320.400 250.829 M90.800 254.823 C 92.560 255.457,94.360 255.952,94.800 255.923 C 96.220 255.829,90.856 253.672,89.200 253.671 C 88.320 253.671,89.040 254.189,90.800 254.823 " stroke="none" fill="#fece59" fill-rule="evenodd"></path><path id="path3" d="M200.800 101.707 C 200.800 102.088,201.503 102.400,202.362 102.400 C 203.222 102.400,204.752 102.744,205.762 103.164 C 206.773 103.584,211.380 105.061,216.000 106.445 C 220.620 107.829,226.380 109.589,228.800 110.354 C 231.220 111.120,235.360 112.385,238.000 113.166 C 240.640 113.947,243.520 114.854,244.400 115.181 C 245.280 115.508,248.160 116.409,250.800 117.182 C 253.440 117.956,256.500 118.885,257.600 119.246 C 258.700 119.607,264.460 121.379,270.400 123.183 C 276.340 124.987,282.370 126.983,283.800 127.619 L 286.400 128.774 286.400 213.540 C 286.400 260.161,286.093 298.495,285.717 298.728 C 285.108 299.104,283.065 298.592,278.000 296.792 C 277.120 296.480,274.420 295.643,272.000 294.932 C 267.819 293.705,260.861 291.546,248.400 287.610 C 245.320 286.637,241.180 285.392,239.200 284.844 C 237.220 284.295,234.418 283.341,232.973 282.723 C 231.528 282.105,229.633 281.600,228.762 281.600 C 227.891 281.600,226.553 281.276,225.789 280.880 C 225.025 280.484,222.240 279.532,219.600 278.766 C 216.960 277.999,214.260 277.182,213.600 276.951 C 212.940 276.719,210.960 276.090,209.200 275.553 C 207.440 275.017,204.830 274.203,203.400 273.745 C 201.970 273.286,200.800 273.197,200.800 273.546 C 200.800 273.895,202.870 274.806,205.400 275.569 C 207.930 276.333,211.980 277.607,214.400 278.400 C 216.820 279.193,220.960 280.454,223.600 281.201 C 226.240 281.949,229.120 282.857,230.000 283.219 C 230.880 283.581,233.760 284.489,236.400 285.236 C 239.040 285.983,243.720 287.393,246.800 288.370 C 252.449 290.161,261.431 292.959,273.200 296.595 C 276.720 297.682,280.427 298.893,281.438 299.286 C 284.322 300.407,286.892 300.145,293.066 298.103 C 296.220 297.060,302.040 295.215,306.000 294.003 C 309.960 292.792,314.100 291.514,315.200 291.164 C 316.300 290.814,319.360 289.923,322.000 289.184 C 324.640 288.445,327.520 287.543,328.400 287.181 C 329.280 286.819,332.160 285.905,334.800 285.151 C 337.440 284.397,342.120 282.976,345.200 281.993 C 348.280 281.010,354.040 279.216,358.000 278.005 C 361.960 276.795,366.820 275.191,368.800 274.443 L 372.400 273.081 372.604 187.984 C 372.732 134.512,372.522 102.602,372.041 102.121 C 371.552 101.632,370.028 101.794,367.837 102.567 C 365.947 103.233,361.160 104.775,357.200 105.992 C 353.240 107.210,347.480 109.010,344.400 109.993 C 341.320 110.976,336.640 112.409,334.000 113.177 C 331.360 113.946,327.760 115.031,326.000 115.589 C 324.240 116.147,320.100 117.412,316.800 118.400 C 313.500 119.388,308.280 121.002,305.200 121.987 C 288.413 127.355,287.985 127.446,284.488 126.378 C 280.246 125.081,269.931 121.862,262.800 119.610 C 259.720 118.637,255.580 117.392,253.600 116.844 C 251.620 116.295,248.818 115.341,247.373 114.723 C 245.928 114.105,244.033 113.600,243.162 113.600 C 242.291 113.600,240.953 113.288,240.189 112.907 C 237.603 111.618,233.213 110.201,230.593 109.811 C 229.159 109.598,227.787 109.103,227.545 108.712 C 227.303 108.320,226.317 107.998,225.353 107.995 C 224.389 107.992,222.569 107.452,221.309 106.795 C 220.048 106.138,218.218 105.600,217.242 105.600 C 216.266 105.600,215.209 105.343,214.895 105.028 C 213.581 103.715,200.800 100.704,200.800 101.707 M28.369 102.600 C 28.159 103.150,28.081 141.746,28.194 188.370 L 28.400 273.139 32.400 274.502 C 34.600 275.252,39.640 276.841,43.600 278.034 C 47.560 279.227,53.320 281.000,56.400 281.974 C 59.480 282.948,65.240 284.749,69.200 285.976 C 73.160 287.202,79.100 289.061,82.400 290.105 C 85.700 291.150,89.480 292.325,90.800 292.717 C 100.444 295.580,110.277 298.630,111.720 299.206 C 112.666 299.584,113.656 299.677,113.920 299.413 C 115.314 298.019,114.405 128.059,113.000 127.366 C 112.230 126.986,109.260 126.033,106.400 125.249 C 103.540 124.465,100.480 123.531,99.600 123.173 C 98.720 122.815,95.840 121.905,93.200 121.151 C 90.560 120.397,85.880 118.976,82.800 117.993 C 79.720 117.010,73.960 115.202,70.000 113.976 C 66.040 112.749,60.280 110.947,57.200 109.971 C 54.120 108.995,48.900 107.384,45.600 106.390 C 42.300 105.397,37.483 103.912,34.896 103.092 C 29.330 101.327,28.867 101.292,28.369 102.600 M353.433 149.646 C 353.755 156.888,354.563 156.389,331.200 163.360 C 325.730 164.992,326.020 164.187,325.780 178.426 C 325.505 194.657,324.379 193.646,338.200 189.567 C 339.630 189.145,341.970 188.464,343.400 188.054 C 344.830 187.644,346.810 187.062,347.800 186.761 C 349.568 186.223,349.600 186.335,349.600 192.955 L 349.600 199.696 338.913 203.048 C 333.035 204.892,327.853 206.400,327.398 206.400 C 325.887 206.400,325.600 208.826,325.600 221.618 C 325.600 234.779,325.840 235.705,328.940 234.493 C 329.963 234.094,332.420 233.315,334.400 232.763 C 336.380 232.211,340.617 230.889,343.815 229.826 C 352.290 227.009,353.144 227.305,353.445 233.167 C 353.904 242.103,355.198 241.286,328.000 249.229 C 325.580 249.936,322.880 250.809,322.000 251.169 C 319.297 252.275,313.906 253.600,312.107 253.600 L 310.400 253.600 310.400 205.228 C 310.400 156.966,310.404 156.854,312.074 155.961 C 313.695 155.093,318.904 153.365,328.000 150.676 C 330.420 149.961,333.120 149.108,334.000 148.781 C 334.880 148.454,337.760 147.557,340.400 146.788 C 343.040 146.019,345.920 145.093,346.800 144.730 C 351.521 142.782,353.183 144.013,353.433 149.646 M74.170 151.223 C 76.455 152.213,77.656 153.282,77.900 154.542 C 79.413 162.348,80.286 166.652,81.202 170.800 C 81.784 173.440,82.616 177.400,83.050 179.600 C 84.751 188.228,86.565 196.515,87.265 198.857 C 87.669 200.208,88.000 202.103,88.000 203.069 C 88.000 204.034,88.511 206.889,89.136 209.412 C 89.760 211.935,90.624 215.800,91.055 218.000 C 91.997 222.807,94.303 233.715,95.200 237.600 C 99.908 258.000,100.048 257.503,90.400 254.671 C 84.631 252.978,84.282 252.638,83.741 248.185 C 81.958 233.493,81.005 230.978,76.626 229.412 C 63.813 224.828,62.066 224.822,60.922 229.358 C 59.224 236.092,58.400 240.103,58.400 241.637 C 58.400 243.977,56.754 244.267,51.898 242.784 C 42.752 239.991,42.846 240.225,45.972 228.000 C 46.704 225.140,47.608 221.360,47.983 219.600 C 48.358 217.840,49.279 214.060,50.030 211.200 C 50.782 208.340,51.683 204.560,52.034 202.800 C 52.385 201.040,53.443 196.540,54.385 192.800 C 55.328 189.060,57.003 182.220,58.107 177.600 C 59.211 172.980,60.989 165.676,62.057 161.368 C 63.126 157.060,64.000 152.902,64.000 152.128 C 64.000 148.527,67.277 148.235,74.170 151.223 M69.291 188.260 C 68.491 191.857,67.524 196.420,67.141 198.400 C 66.759 200.380,66.075 203.689,65.623 205.754 C 64.338 211.614,64.351 211.635,70.223 213.489 C 77.581 215.811,77.931 215.766,77.199 212.600 C 76.868 211.170,76.323 208.200,75.986 206.000 C 75.650 203.800,74.760 198.760,74.009 194.800 C 73.258 190.840,72.459 186.427,72.233 184.993 C 71.545 180.613,70.811 181.429,69.291 188.260 " stroke="none" fill="#419a9a" fill-rule="evenodd"></path><path id="path4" d="M0.000 200.000 L 0.000 400.000 200.000 400.000 L 400.000 400.000 400.000 200.000 L 400.000 0.000 200.000 0.000 L 0.000 0.000 0.000 200.000 M210.561 103.391 C 212.630 103.977,214.580 104.713,214.895 105.028 C 215.209 105.343,216.266 105.600,217.242 105.600 C 218.218 105.600,220.048 106.138,221.309 106.795 C 222.569 107.452,224.389 107.992,225.353 107.995 C 226.317 107.998,227.303 108.320,227.545 108.712 C 227.787 109.103,229.159 109.598,230.593 109.811 C 233.213 110.201,237.603 111.618,240.189 112.907 C 240.953 113.288,242.291 113.600,243.162 113.600 C 244.033 113.600,245.928 114.105,247.373 114.723 C 248.818 115.341,251.620 116.295,253.600 116.844 C 255.580 117.392,259.720 118.637,262.800 119.610 C 269.931 121.862,280.246 125.081,284.488 126.378 C 287.985 127.446,288.413 127.355,305.200 121.987 C 308.280 121.002,313.500 119.388,316.800 118.400 C 320.100 117.412,324.240 116.147,326.000 115.589 C 327.760 115.031,331.360 113.946,334.000 113.177 C 336.640 112.409,341.320 110.976,344.400 109.993 C 347.480 109.010,353.240 107.210,357.200 105.992 C 361.160 104.775,365.947 103.233,367.837 102.567 C 370.028 101.794,371.552 101.632,372.041 102.121 C 372.522 102.602,372.732 134.512,372.604 187.984 L 372.400 273.081 368.800 274.443 C 366.820 275.191,361.960 276.795,358.000 278.005 C 354.040 279.216,348.280 281.010,345.200 281.993 C 342.120 282.976,337.440 284.397,334.800 285.151 C 332.160 285.905,329.280 286.819,328.400 287.181 C 327.520 287.543,324.640 288.445,322.000 289.184 C 319.360 289.923,316.300 290.814,315.200 291.164 C 314.100 291.514,309.960 292.792,306.000 294.003 C 302.040 295.215,296.220 297.060,293.066 298.103 C 286.892 300.145,284.322 300.407,281.438 299.286 C 280.427 298.893,276.720 297.682,273.200 296.595 C 261.431 292.959,252.449 290.161,246.800 288.370 C 243.720 287.393,239.040 285.983,236.400 285.236 C 233.760 284.489,230.880 283.581,230.000 283.219 C 229.120 282.857,226.240 281.949,223.600 281.201 C 220.960 280.454,216.820 279.202,214.400 278.419 C 198.217 273.183,199.588 273.465,196.275 274.691 C 194.584 275.317,191.040 276.435,188.400 277.176 C 185.760 277.916,182.880 278.819,182.000 279.181 C 181.120 279.543,178.240 280.445,175.600 281.184 C 172.960 281.923,169.900 282.820,168.800 283.176 C 167.700 283.533,163.560 284.815,159.600 286.027 C 155.640 287.238,149.880 289.020,146.800 289.987 C 143.720 290.954,138.140 292.695,134.400 293.857 C 130.660 295.018,124.822 296.845,121.427 297.917 C 118.032 298.989,114.792 299.777,114.227 299.668 C 112.178 299.272,105.901 297.462,101.600 296.026 C 99.180 295.219,95.040 293.933,92.400 293.169 C 89.760 292.405,85.080 290.976,82.000 289.993 C 78.920 289.010,73.160 287.202,69.200 285.976 C 65.240 284.749,59.480 282.948,56.400 281.974 C 53.320 281.000,47.560 279.227,43.600 278.034 C 39.640 276.841,34.600 275.252,32.400 274.502 L 28.400 273.139 28.196 188.013 C 28.073 136.482,28.285 102.595,28.735 102.145 C 29.190 101.690,32.662 102.391,37.738 103.964 C 42.282 105.372,47.080 106.850,48.400 107.247 C 49.720 107.645,53.500 108.819,56.800 109.858 C 60.100 110.896,66.040 112.749,70.000 113.976 C 73.960 115.202,79.720 117.010,82.800 117.993 C 85.880 118.976,90.560 120.391,93.200 121.137 C 95.840 121.883,98.625 122.833,99.389 123.247 C 100.153 123.661,101.246 124.000,101.817 124.000 C 102.389 124.000,105.542 124.880,108.824 125.955 L 114.793 127.910 120.396 126.058 C 123.478 125.039,129.240 123.202,133.200 121.976 C 137.160 120.749,142.920 118.954,146.000 117.987 C 158.858 113.951,174.288 109.222,185.200 105.974 C 189.160 104.795,193.120 103.521,194.000 103.143 C 199.233 100.896,201.890 100.935,210.561 103.391 " stroke="none" fill="#194d67" fill-rule="evenodd"></path></g></svg>