<svg id="d434d79b-045f-4ffe-a9e6-ffc6dc425fcc" data-name="Layer 1" xmlns="http://www.w3.org/2000/svg" viewBox="0 0 200 100"><defs><style>.\37 d8f9238-2e1b-4866-a770-c042c44bcec2{fill:#fff;}.b75d1a7d-1f2d-4444-aa8b-2e81ec26e93f{fill:#61a63a;}</style></defs><title>JfrogArtifactory_logo</title><rect class="7d8f9238-2e1b-4866-a770-c042c44bcec2" width="200" height="100"/><path class="b75d1a7d-1f2d-4444-aa8b-2e81ec26e93f" d="M45.12,69.08h2.54v10a8.57,8.57,0,0,1-.18,2.43,4.52,4.52,0,0,1-2.89,2.91l-1.16-1.29a4,4,0,0,0,1.45-1.5,5.62,5.62,0,0,0,.25-2.29Z"/><path class="b75d1a7d-1f2d-4444-aa8b-2e81ec26e93f" d="M49,69.11H55.7l-.29,2H51.46V74h3.16v2H51.46V81.5H49Z"/><path class="b75d1a7d-1f2d-4444-aa8b-2e81ec26e93f" d="M55.13,72.7l2.14-.57a2.94,2.94,0,0,1,.38,1.3A4.14,4.14,0,0,1,59,72.28a2.13,2.13,0,0,1,.79-.14,1.85,1.85,0,0,1,.89.2L60,74.44a1.35,1.35,0,0,0-.7-.18,1.91,1.91,0,0,0-1.47.77V81.5H55.47V75.39A8.3,8.3,0,0,0,55.13,72.7Z"/><path class="b75d1a7d-1f2d-4444-aa8b-2e81ec26e93f" d="M64.42,72.17a3.84,3.84,0,0,1,3.11,1.38,4.76,4.76,0,0,1,1.05,3.34,5,5,0,0,1-1.14,3.54,3.74,3.74,0,0,1-3,1.27c-2.48,0-4.11-1.86-4.11-4.74S62,72.17,64.42,72.17Zm0,1.77a1.29,1.29,0,0,0-1.23.93,8.67,8.67,0,0,0,.05,4.34,1.33,1.33,0,0,0,1.22.75c1,0,1.48-.93,1.48-3.09a4.25,4.25,0,0,0-.48-2.45A1.28,1.28,0,0,0,64.46,73.94Z"/><path class="b75d1a7d-1f2d-4444-aa8b-2e81ec26e93f" d="M77.63,71.83l1,1.52a2.28,2.28,0,0,1-1.68.68,4.42,4.42,0,0,1-.63-.05,2.21,2.21,0,0,1,.54,1.5c0,1.57-1.43,2.72-3.38,2.72l-.36,0c-.61.29-.95.5-.95.75s.14.21.39.21l1.29,0a3.72,3.72,0,0,1,2.77.82,2.49,2.49,0,0,1,.79,1.95,2.6,2.6,0,0,1-.73,1.89A4.93,4.93,0,0,1,73.07,85a5.12,5.12,0,0,1-3.47-1,2.15,2.15,0,0,1-.75-1.63,1.83,1.83,0,0,1,.22-.93h2.22a1.28,1.28,0,0,0-.11.59c0,.73.61,1.13,1.72,1.13a2.84,2.84,0,0,0,1.52-.3,1.16,1.16,0,0,0,.57-.93,1,1,0,0,0-.43-.82,3,3,0,0,0-1.25-.27l-1,0a7,7,0,0,1-2.2-.29,1.14,1.14,0,0,1-.52-.45,1.66,1.66,0,0,1-.18-.75,1.2,1.2,0,0,1,.29-.84,2.93,2.93,0,0,1,1.39-.7,2.37,2.37,0,0,1-2-2.54c0-1.88,1.52-3.09,3.86-3.09a5.85,5.85,0,0,1,1.64.23,4.24,4.24,0,0,0,1.13.2A2.88,2.88,0,0,0,77.63,71.83Zm-4.68,2.11a1.27,1.27,0,0,0-1.43,1.36c0,.93.57,1.3,1.41,1.3s1.47-.47,1.47-1.3A1.29,1.29,0,0,0,72.95,73.94Z"/><path class="b75d1a7d-1f2d-4444-aa8b-2e81ec26e93f" d="M84.56,69h2.7L91.18,81.5H88.5l-.88-2.95H84L83.1,81.5H80.49Zm0,7.43H87s-.41-1.31-.68-2.5c-.13-.57-.5-2.2-.5-2.2s-.36,1.47-.59,2.4S84.85,75.65,84.58,76.48Z"/><path class="b75d1a7d-1f2d-4444-aa8b-2e81ec26e93f" d="M91.09,72.7l2.14-.57a2.94,2.94,0,0,1,.38,1.3A4.14,4.14,0,0,1,95,72.28a2.13,2.13,0,0,1,.79-.14,1.85,1.85,0,0,1,.89.2L96,74.44a1.35,1.35,0,0,0-.7-.18,1.91,1.91,0,0,0-1.47.77V81.5H91.43V75.39A8.3,8.3,0,0,0,91.09,72.7Z"/><path class="b75d1a7d-1f2d-4444-aa8b-2e81ec26e93f" d="M102.37,72.33l-.61,1.59h-1.54v4.66c0,1.16.21,1.47,1,1.47a3.14,3.14,0,0,0,.86-.18l.3,1.43a5,5,0,0,1-1.95.41A2.46,2.46,0,0,1,98,80.37,3.36,3.36,0,0,1,97.85,79v-5h-.91V72.37h.91a16.13,16.13,0,0,1,.09-2.18l2.43-.61a27,27,0,0,0-.14,2.75Z"/><path class="b75d1a7d-1f2d-4444-aa8b-2e81ec26e93f" d="M104.72,67.58a1.59,1.59,0,0,1,1.58,1.62,1.61,1.61,0,1,1-3.21,0A1.63,1.63,0,0,1,104.72,67.58Zm-1.62,4.93,2.39-.38V81.5H103.1Z"/><path class="b75d1a7d-1f2d-4444-aa8b-2e81ec26e93f" d="M111.72,70.31a2,2,0,0,0-1-.3.94.94,0,0,0-1,1v1.29h2.32L111.45,74h-1.7V81.5h-2.34V74h-.82V72.33h.88a9.1,9.1,0,0,1-.09-1.23,2.64,2.64,0,0,1,2.95-2.84,4.14,4.14,0,0,1,2.16.57Z"/><path class="b75d1a7d-1f2d-4444-aa8b-2e81ec26e93f" d="M112,73.44a6.83,6.83,0,0,1,1.48-.75,6.2,6.2,0,0,1,2.5-.54c1.54,0,2.59.57,2.95,1.59a4.64,4.64,0,0,1,.16,1.64l-.05,3.07v.16a1.87,1.87,0,0,0,.86,1.88L118.67,82a2.56,2.56,0,0,1-1.29-1.11,3.92,3.92,0,0,1-.55.48,3.17,3.17,0,0,1-1.84.5c-2,0-3.15-1-3.15-2.86,0-2.14,1.48-3.15,4.4-3.15l.54,0v-.38c0-1-.2-1.36-1.07-1.36a5,5,0,0,0-2.64,1Zm4.7,4.06h-.11c-1.66,0-2.23.3-2.23,1.39a1.09,1.09,0,0,0,1.05,1.2,1.73,1.73,0,0,0,1.25-.63Z"/><path class="b75d1a7d-1f2d-4444-aa8b-2e81ec26e93f" d="M126.93,73.13l-1.16,1.57a2.31,2.31,0,0,0-1.45-.72c-1.07,0-1.55.93-1.55,3.07a3.78,3.78,0,0,0,.46,2.31,1.38,1.38,0,0,0,1.07.52,2.45,2.45,0,0,0,1.64-.75l.14-.13,1.09,1.45a3.8,3.8,0,0,1-.84.68,4.28,4.28,0,0,1-2.23.57c-2.52,0-4-1.75-4-4.72A4.87,4.87,0,0,1,122,72.76a4.34,4.34,0,0,1,2.27-.68,4.22,4.22,0,0,1,1.77.41A4.06,4.06,0,0,1,126.93,73.13Z"/><path class="b75d1a7d-1f2d-4444-aa8b-2e81ec26e93f" d="M132.88,72.33l-.61,1.59h-1.54v4.66c0,1.16.21,1.47,1,1.47a3.14,3.14,0,0,0,.86-.18l.3,1.43a5,5,0,0,1-1.95.41,2.46,2.46,0,0,1-2.47-1.34,3.36,3.36,0,0,1-.16-1.41v-5h-.91V72.37h.91a16.13,16.13,0,0,1,.09-2.18l2.43-.61a27,27,0,0,0-.14,2.75Z"/><path class="b75d1a7d-1f2d-4444-aa8b-2e81ec26e93f" d="M137.19,72.17a3.84,3.84,0,0,1,3.11,1.38,4.76,4.76,0,0,1,1.05,3.34,5,5,0,0,1-1.14,3.54,3.74,3.74,0,0,1-3,1.27c-2.48,0-4.11-1.86-4.11-4.74S134.72,72.17,137.19,72.17Zm0,1.77a1.29,1.29,0,0,0-1.23.93,8.67,8.67,0,0,0,.05,4.34,1.33,1.33,0,0,0,1.22.75c1,0,1.48-.93,1.48-3.09a4.25,4.25,0,0,0-.48-2.45A1.28,1.28,0,0,0,137.22,73.94Z"/><path class="b75d1a7d-1f2d-4444-aa8b-2e81ec26e93f" d="M142,72.7l2.14-.57a2.94,2.94,0,0,1,.38,1.3,4.14,4.14,0,0,1,1.36-1.16,2.13,2.13,0,0,1,.79-.14,1.85,1.85,0,0,1,.89.2l-.66,2.11a1.35,1.35,0,0,0-.7-.18,1.91,1.91,0,0,0-1.47.77V81.5h-2.39V75.39A8.3,8.3,0,0,0,142,72.7Z"/><path class="b75d1a7d-1f2d-4444-aa8b-2e81ec26e93f" d="M147.52,72.51l2.45-.29,1.59,5.33c.16.55.48,1.89.48,1.89s.18-1,.29-1.47.18-.66.36-1.27l1.38-4.34h2.52l-3.32,9.27c-.63,1.77-1.09,2.54-1.75,3a4.83,4.83,0,0,1-2.22.84l-.82-1.57a5.36,5.36,0,0,0,1.48-.61,2.77,2.77,0,0,0,.68-.75,5.47,5.47,0,0,0,.52-1.07h-.61c-.14-.43-.22-.61-.38-1.07s-.46-1.47-.48-1.5Z"/><path class="b75d1a7d-1f2d-4444-aa8b-2e81ec26e93f" d="M100,52.47a19,19,0,1,1,19-19A19,19,0,0,1,100,52.47Zm0-34.6A15.62,15.62,0,1,0,115.6,33.49,15.64,15.64,0,0,0,100,17.87Z"/><rect class="b75d1a7d-1f2d-4444-aa8b-2e81ec26e93f" x="81.25" y="60.12" width="37.75" height="3.37"/></svg>